<?xml version="1.0" encoding="utf-8"?>
<svg xmlns="http://www.w3.org/2000/svg" xmlns:xlink="http://www.w3.org/1999/xlink" style="margin: auto; background: none; display: block; shape-rendering: auto;" width="211px" height="211px" viewBox="0 0 100 100" preserveAspectRatio="xMidYMid">
<g transform="translate(50 50)">
<g>
<animateTransform attributeName="transform" type="rotate" values="0;45" keyTimes="0;1" dur="0.47846889952153115s" repeatCount="indefinite"></animateTransform><path d="M26.339134382131846 -9.5 L35.339134382131846 -9.5 L35.339134382131846 9.5 L26.339134382131846 9.5 A28 28 0 0 1 25.342094953461377 11.907066110916972 L25.342094953461377 11.907066110916972 L31.706055984140306 18.2710271415959 L18.2710271415959 31.706055984140306 L11.907066110916972 25.342094953461377 A28 28 0 0 1 9.500000000000004 26.339134382131846 L9.500000000000004 26.339134382131846 L9.500000000000004 35.339134382131846 L-9.5 35.339134382131846 L-9.5 26.339134382131846 A28 28 0 0 1 -11.907066110916968 25.342094953461377 L-11.907066110916968 25.342094953461377 L-18.271027141595894 31.706055984140306 L-31.706055984140306 18.2710271415959 L-25.342094953461377 11.907066110916974 A28 28 0 0 1 -26.339134382131846 9.500000000000005 L-26.339134382131846 9.500000000000005 L-35.339134382131846 9.500000000000007 L-35.339134382131846 -9.499999999999995 L-26.33913438213185 -9.499999999999996 A28 28 0 0 1 -25.34209495346138 -11.907066110916968 L-25.34209495346138 -11.907066110916968 L-31.70605598414031 -18.271027141595894 L-18.271027141595905 -31.7060559841403 L-11.907066110916976 -25.342094953461373 A28 28 0 0 1 -9.500000000000007 -26.339134382131846 L-9.500000000000007 -26.339134382131846 L-9.500000000000009 -35.339134382131846 L9.499999999999995 -35.339134382131846 L9.499999999999996 -26.33913438213185 A28 28 0 0 1 11.907066110916967 -25.34209495346138 L11.907066110916967 -25.34209495346138 L18.271027141595894 -31.70605598414031 L31.7060559841403 -18.27102714159591 L25.342094953461373 -11.907066110916977 A28 28 0 0 1 26.339134382131842 -9.500000000000009 M0 -18A18 18 0 1 0 0 18 A18 18 0 1 0 0 -18" fill="#71c7d8"></path></g></g>
<!-- [ldio] generated by https://loading.io/ --></svg>