<svg id="visual" viewBox="0 0 1920 1080" width="1920" height="1080" xmlns="http://www.w3.org/2000/svg" xmlns:xlink="http://www.w3.org/1999/xlink" version="1.1"><path d="M0 694L29.2 688.3C58.3 682.7 116.7 671.3 174.8 673.7C233 676 291 692 349.2 702.7C407.3 713.3 465.7 718.7 523.8 709.5C582 700.3 640 676.7 698.2 671.5C756.3 666.3 814.7 679.7 872.8 681C931 682.3 989 671.7 1047.2 671.3C1105.3 671 1163.7 681 1221.8 679.3C1280 677.7 1338 664.3 1396.2 660.8C1454.3 657.3 1512.7 663.7 1570.8 674C1629 684.3 1687 698.7 1745.2 699.2C1803.3 699.7 1861.7 686.3 1890.8 679.7L1920 673L1920 1081L1890.8 1081C1861.7 1081 1803.3 1081 1745.2 1081C1687 1081 1629 1081 1570.8 1081C1512.7 1081 1454.3 1081 1396.2 1081C1338 1081 1280 1081 1221.8 1081C1163.7 1081 1105.3 1081 1047.2 1081C989 1081 931 1081 872.8 1081C814.7 1081 756.3 1081 698.2 1081C640 1081 582 1081 523.8 1081C465.7 1081 407.3 1081 349.2 1081C291 1081 233 1081 174.8 1081C116.7 1081 58.3 1081 29.2 1081L0 1081Z" fill="#3cd3fe"></path><path d="M0 734L29.2 744.2C58.3 754.3 116.7 774.7 174.8 780.5C233 786.3 291 777.7 349.2 765.8C407.3 754 465.7 739 523.8 738.2C582 737.3 640 750.7 698.2 753C756.3 755.3 814.7 746.7 872.8 741C931 735.3 989 732.7 1047.2 733C1105.3 733.3 1163.7 736.7 1221.8 736C1280 735.3 1338 730.7 1396.2 737C1454.3 743.3 1512.7 760.7 1570.8 766.3C1629 772 1687 766 1745.2 759.3C1803.3 752.7 1861.7 745.3 1890.8 741.7L1920 738L1920 1081L1890.8 1081C1861.7 1081 1803.3 1081 1745.2 1081C1687 1081 1629 1081 1570.8 1081C1512.7 1081 1454.3 1081 1396.2 1081C1338 1081 1280 1081 1221.8 1081C1163.7 1081 1105.3 1081 1047.2 1081C989 1081 931 1081 872.8 1081C814.7 1081 756.3 1081 698.2 1081C640 1081 582 1081 523.8 1081C465.7 1081 407.3 1081 349.2 1081C291 1081 233 1081 174.8 1081C116.7 1081 58.3 1081 29.2 1081L0 1081Z" fill="#009cd9"></path><path d="M0 838L29.2 836.3C58.3 834.7 116.7 831.3 174.8 826.5C233 821.7 291 815.3 349.2 814C407.3 812.7 465.7 816.3 523.8 824.7C582 833 640 846 698.2 853.8C756.3 861.7 814.7 864.3 872.8 857.7C931 851 989 835 1047.2 826.8C1105.3 818.7 1163.7 818.3 1221.8 826.3C1280 834.3 1338 850.7 1396.2 848.2C1454.3 845.7 1512.7 824.3 1570.8 823.3C1629 822.3 1687 841.7 1745.2 843C1803.3 844.3 1861.7 827.7 1890.8 819.3L1920 811L1920 1081L1890.8 1081C1861.7 1081 1803.3 1081 1745.2 1081C1687 1081 1629 1081 1570.8 1081C1512.7 1081 1454.3 1081 1396.2 1081C1338 1081 1280 1081 1221.8 1081C1163.7 1081 1105.3 1081 1047.2 1081C989 1081 931 1081 872.8 1081C814.7 1081 756.3 1081 698.2 1081C640 1081 582 1081 523.8 1081C465.7 1081 407.3 1081 349.2 1081C291 1081 233 1081 174.8 1081C116.7 1081 58.3 1081 29.2 1081L0 1081Z" fill="#0067ad"></path><path d="M0 934L29.2 931.5C58.3 929 116.7 924 174.8 915.3C233 906.7 291 894.3 349.2 895.8C407.3 897.3 465.7 912.7 523.8 914.2C582 915.7 640 903.3 698.2 897.8C756.3 892.3 814.7 893.7 872.8 902.2C931 910.7 989 926.3 1047.2 925.8C1105.3 925.3 1163.7 908.7 1221.8 900.8C1280 893 1338 894 1396.2 897.2C1454.3 900.3 1512.7 905.7 1570.8 911.7C1629 917.7 1687 924.3 1745.2 920C1803.3 915.7 1861.7 900.3 1890.8 892.7L1920 885L1920 1081L1890.8 1081C1861.7 1081 1803.3 1081 1745.2 1081C1687 1081 1629 1081 1570.8 1081C1512.7 1081 1454.3 1081 1396.2 1081C1338 1081 1280 1081 1221.8 1081C1163.7 1081 1105.3 1081 1047.2 1081C989 1081 931 1081 872.8 1081C814.7 1081 756.3 1081 698.2 1081C640 1081 582 1081 523.8 1081C465.7 1081 407.3 1081 349.2 1081C291 1081 233 1081 174.8 1081C116.7 1081 58.3 1081 29.2 1081L0 1081Z" fill="#02347c"></path><path d="M0 965L29.2 968.5C58.3 972 116.7 979 174.8 980.7C233 982.3 291 978.7 349.2 979.5C407.3 980.3 465.7 985.7 523.8 990C582 994.3 640 997.7 698.2 999.8C756.3 1002 814.7 1003 872.8 1001.2C931 999.3 989 994.7 1047.2 988.3C1105.3 982 1163.7 974 1221.8 970C1280 966 1338 966 1396.2 972.2C1454.3 978.3 1512.7 990.7 1570.8 999C1629 1007.3 1687 1011.7 1745.2 1012.8C1803.3 1014 1861.7 1012 1890.8 1011L1920 1010L1920 1081L1890.8 1081C1861.7 1081 1803.3 1081 1745.2 1081C1687 1081 1629 1081 1570.8 1081C1512.7 1081 1454.3 1081 1396.2 1081C1338 1081 1280 1081 1221.8 1081C1163.7 1081 1105.3 1081 1047.2 1081C989 1081 931 1081 872.8 1081C814.7 1081 756.3 1081 698.2 1081C640 1081 582 1081 523.8 1081C465.7 1081 407.3 1081 349.2 1081C291 1081 233 1081 174.8 1081C116.7 1081 58.3 1081 29.2 1081L0 1081Z" fill="#0a0047"></path></svg>